<svg height="48pt" viewBox="0 0 48 48" width="48pt" xmlns="http://www.w3.org/2000/svg" xmlns:xlink="http://www.w3.org/1999/xlink"><linearGradient id="a" gradientTransform="matrix(44 0 0 40 2 4)" gradientUnits="userSpaceOnUse" x1="0" x2="1" y1=".5" y2=".5"><stop offset="0" stop-color="#43e97b"/><stop offset=".97826086957" stop-color="#38f9d7"/></linearGradient><path d="m29.027 15v4h-2.027v2h2.027v6c0 4 .909 5 3.844 5h2.193l-.128-2h-1.475c-1.351 0-1.461-1-1.461-3v-6h3v-2h-3v-4zm-11.015 2c3.229 0 3.988 2 3.988 6s-.734 6-3.988 6-4.012-2-4.012-6 .782-6 4.012-6zm23.988 9c0-1.104.896-2 2-2 1.104 0 2 .896 2 2v6.83c0 1.104-.634 2.634-1.414 3.414l-6.342 6.342c-.78.78-2.31 1.414-3.414 1.414h-27.83c-2.76 0-5-2.24-5-5v-7c0-1.104.896-2 2-2 1.104 0 2 .896 2 2v5c0 1.656 1.344 3 3 3h25.17c.552 0 1.317-.317 1.707-.707l5.416-5.416c.39-.39.707-1.155.707-1.707zm-23.965-12c-5.558 0-7.035 3-7.035 9s1.451 9 7.035 9h1.586l2.311 4 2.677-1-2.181-4c2.078-1 2.572-4 2.572-8 0-6-1.406-9-6.965-9zm-12.035 8c0 1.104-.896 2-2 2-1.104 0-2-.896-2-2v-6.83c0-1.104.634-2.634 1.414-3.414l6.342-6.342c.78-.78 2.31-1.414 3.414-1.414h27.83c2.76 0 5 2.24 5 5v7c0 1.104-.896 2-2 2-1.104 0-2-.896-2-2v-5c0-1.656-1.344-3-3-3h-25.17c-.552 0-1.317.317-1.707.707l-5.416 5.416c-.39.39-.707 1.155-.707 1.707z" fill="url(#a)" fill-rule="evenodd"/></svg>